G04 #@! TF.FileFunction,Legend,Bot*
%FSLAX46Y46*%
G04 Gerber Fmt 4.6, Leading zero omitted, Abs format (unit mm)*
G04 Created by KiCad (PCBNEW (2016-09-20 revision a0104d6)-master) date Mon Oct 17 16:35:46 2016*
%MOMM*%
%LPD*%
G01*
G04 APERTURE LIST*
%ADD10C,0.100000*%
%ADD11C,0.300000*%
%ADD12C,0.150000*%
%ADD13C,0.203200*%
G04 APERTURE END LIST*
D10*
D11*
X110142857Y-63678571D02*
X109785714Y-64678571D01*
X109428571Y-63678571D01*
X108571428Y-63178571D02*
X108428571Y-63178571D01*
X108285714Y-63250000D01*
X108214285Y-63321428D01*
X108142857Y-63464285D01*
X108071428Y-63750000D01*
X108071428Y-64107142D01*
X108142857Y-64392857D01*
X108214285Y-64535714D01*
X108285714Y-64607142D01*
X108428571Y-64678571D01*
X108571428Y-64678571D01*
X108714285Y-64607142D01*
X108785714Y-64535714D01*
X108857142Y-64392857D01*
X108928571Y-64107142D01*
X108928571Y-63750000D01*
X108857142Y-63464285D01*
X108785714Y-63321428D01*
X108714285Y-63250000D01*
X108571428Y-63178571D01*
X107428571Y-64535714D02*
X107357142Y-64607142D01*
X107428571Y-64678571D01*
X107500000Y-64607142D01*
X107428571Y-64535714D01*
X107428571Y-64678571D01*
X106857142Y-63178571D02*
X105857142Y-63178571D01*
X106500000Y-64678571D01*
D12*
X150888000Y-115386000D02*
X152388000Y-115386000D01*
X152388000Y-117786000D02*
X150888000Y-117786000D01*
X150888000Y-115386000D02*
X150888000Y-115636000D01*
X152388000Y-115386000D02*
X152388000Y-115636000D01*
X150888000Y-117786000D02*
X150888000Y-117536000D01*
X152388000Y-117786000D02*
X152388000Y-117536000D01*
D13*
X122349000Y-77509800D02*
X118005600Y-77509800D01*
X98498400Y-100750800D02*
X122349000Y-100750800D01*
X122349000Y-100750800D02*
X122349000Y-77509800D01*
X118000520Y-77499640D02*
X115750080Y-75249200D01*
X115750080Y-75249200D02*
X98500940Y-75249200D01*
X98500940Y-75249200D02*
X98500940Y-100750800D01*
D12*
X140556000Y-81774000D02*
X140556000Y-84822000D01*
X140556000Y-84822000D02*
X133444000Y-84822000D01*
X133444000Y-84822000D02*
X133444000Y-81774000D01*
X140556000Y-78726000D02*
X140556000Y-77964000D01*
X140556000Y-77964000D02*
X139032000Y-75678000D01*
X139032000Y-75678000D02*
X134968000Y-75678000D01*
X134968000Y-75678000D02*
X133444000Y-77964000D01*
X133444000Y-77964000D02*
X133444000Y-78726000D01*
X136238000Y-90162000D02*
X136238000Y-90924000D01*
X136238000Y-90924000D02*
X137762000Y-90924000D01*
X137762000Y-90924000D02*
X137762000Y-90162000D01*
X134714000Y-101338000D02*
X139286000Y-101338000D01*
X139286000Y-101338000D02*
X139286000Y-90162000D01*
X139286000Y-90162000D02*
X134714000Y-90162000D01*
X134714000Y-90162000D02*
X134714000Y-101338000D01*
X142650000Y-80750000D02*
X142650000Y-79750000D01*
X144350000Y-79750000D02*
X144350000Y-80750000D01*
X129650000Y-80750000D02*
X129650000Y-79750000D01*
X131350000Y-79750000D02*
X131350000Y-80750000D01*
X142000000Y-88350000D02*
X141000000Y-88350000D01*
X141000000Y-86650000D02*
X142000000Y-86650000D01*
X164625000Y-114100000D02*
X164625000Y-112900000D01*
X162875000Y-112900000D02*
X162875000Y-114100000D01*
X125975000Y-92150000D02*
X125975000Y-90150000D01*
X128025000Y-90150000D02*
X128025000Y-92150000D01*
X163250180Y-120449200D02*
X163250180Y-121150240D01*
X163250180Y-121150240D02*
X163499100Y-121150240D01*
X166049160Y-121150240D02*
X166249820Y-121150240D01*
X166249820Y-121150240D02*
X166249820Y-120449200D01*
X118060000Y-68280000D02*
X138380000Y-68280000D01*
X118600000Y-67730000D02*
X137820000Y-67730000D01*
X118060000Y-59180000D02*
X138380000Y-59180000D01*
X118600000Y-59730000D02*
X125970000Y-59730000D01*
X130470000Y-59730000D02*
X137820000Y-59730000D01*
X125970000Y-59730000D02*
X125970000Y-59180000D01*
X130470000Y-59730000D02*
X130470000Y-59180000D01*
X118060000Y-68280000D02*
X118060000Y-59180000D01*
X118600000Y-67730000D02*
X118600000Y-59730000D01*
X138380000Y-68280000D02*
X138380000Y-59180000D01*
X137820000Y-67730000D02*
X137820000Y-59730000D01*
X118060000Y-68280000D02*
X118600000Y-67730000D01*
X138380000Y-68280000D02*
X137820000Y-67730000D01*
X118060000Y-59180000D02*
X118600000Y-59730000D01*
X138380000Y-59180000D02*
X137820000Y-59730000D01*
X115467840Y-125370560D02*
X116667840Y-125370560D01*
X116667840Y-123620560D02*
X115467840Y-123620560D01*
X148560000Y-68280000D02*
X168880000Y-68280000D01*
X149100000Y-67730000D02*
X168320000Y-67730000D01*
X148560000Y-59180000D02*
X168880000Y-59180000D01*
X149100000Y-59730000D02*
X156470000Y-59730000D01*
X160970000Y-59730000D02*
X168320000Y-59730000D01*
X156470000Y-59730000D02*
X156470000Y-59180000D01*
X160970000Y-59730000D02*
X160970000Y-59180000D01*
X148560000Y-68280000D02*
X148560000Y-59180000D01*
X149100000Y-67730000D02*
X149100000Y-59730000D01*
X168880000Y-68280000D02*
X168880000Y-59180000D01*
X168320000Y-67730000D02*
X168320000Y-59730000D01*
X148560000Y-68280000D02*
X149100000Y-67730000D01*
X168880000Y-68280000D02*
X168320000Y-67730000D01*
X148560000Y-59180000D02*
X149100000Y-59730000D01*
X168880000Y-59180000D02*
X168320000Y-59730000D01*
X152285619Y-114147904D02*
X151752285Y-114147904D01*
X152285619Y-114947904D01*
X151752285Y-114947904D01*
X151028476Y-114947904D02*
X151485619Y-114947904D01*
X151257047Y-114947904D02*
X151257047Y-114147904D01*
X151333238Y-114262190D01*
X151409428Y-114338380D01*
X151485619Y-114376476D01*
D13*
X111282095Y-74411238D02*
X111136952Y-74459619D01*
X110895047Y-74459619D01*
X110798285Y-74411238D01*
X110749904Y-74362857D01*
X110701523Y-74266095D01*
X110701523Y-74169333D01*
X110749904Y-74072571D01*
X110798285Y-74024190D01*
X110895047Y-73975809D01*
X111088571Y-73927428D01*
X111185333Y-73879047D01*
X111233714Y-73830666D01*
X111282095Y-73733904D01*
X111282095Y-73637142D01*
X111233714Y-73540380D01*
X111185333Y-73492000D01*
X111088571Y-73443619D01*
X110846666Y-73443619D01*
X110701523Y-73492000D01*
X110266095Y-74459619D02*
X110266095Y-73443619D01*
X110024190Y-73443619D01*
X109879047Y-73492000D01*
X109782285Y-73588761D01*
X109733904Y-73685523D01*
X109685523Y-73879047D01*
X109685523Y-74024190D01*
X109733904Y-74217714D01*
X109782285Y-74314476D01*
X109879047Y-74411238D01*
X110024190Y-74459619D01*
X110266095Y-74459619D01*
X108717904Y-74459619D02*
X109298476Y-74459619D01*
X109008190Y-74459619D02*
X109008190Y-73443619D01*
X109104952Y-73588761D01*
X109201714Y-73685523D01*
X109298476Y-73733904D01*
D12*
X137761904Y-74202380D02*
X137761904Y-75011904D01*
X137714285Y-75107142D01*
X137666666Y-75154761D01*
X137571428Y-75202380D01*
X137380952Y-75202380D01*
X137285714Y-75154761D01*
X137238095Y-75107142D01*
X137190476Y-75011904D01*
X137190476Y-74202380D01*
X136190476Y-75202380D02*
X136761904Y-75202380D01*
X136476190Y-75202380D02*
X136476190Y-74202380D01*
X136571428Y-74345238D01*
X136666666Y-74440476D01*
X136761904Y-74488095D01*
X137976190Y-89702380D02*
X137976190Y-88702380D01*
X136928571Y-89607142D02*
X136976190Y-89654761D01*
X137119047Y-89702380D01*
X137214285Y-89702380D01*
X137357142Y-89654761D01*
X137452380Y-89559523D01*
X137500000Y-89464285D01*
X137547619Y-89273809D01*
X137547619Y-89130952D01*
X137500000Y-88940476D01*
X137452380Y-88845238D01*
X137357142Y-88750000D01*
X137214285Y-88702380D01*
X137119047Y-88702380D01*
X136976190Y-88750000D01*
X136928571Y-88797619D01*
X135976190Y-89702380D02*
X136547619Y-89702380D01*
X136261904Y-89702380D02*
X136261904Y-88702380D01*
X136357142Y-88845238D01*
X136452380Y-88940476D01*
X136547619Y-88988095D01*
X143666666Y-77607142D02*
X143714285Y-77654761D01*
X143857142Y-77702380D01*
X143952380Y-77702380D01*
X144095238Y-77654761D01*
X144190476Y-77559523D01*
X144238095Y-77464285D01*
X144285714Y-77273809D01*
X144285714Y-77130952D01*
X144238095Y-76940476D01*
X144190476Y-76845238D01*
X144095238Y-76750000D01*
X143952380Y-76702380D01*
X143857142Y-76702380D01*
X143714285Y-76750000D01*
X143666666Y-76797619D01*
X142714285Y-77702380D02*
X143285714Y-77702380D01*
X143000000Y-77702380D02*
X143000000Y-76702380D01*
X143095238Y-76845238D01*
X143190476Y-76940476D01*
X143285714Y-76988095D01*
X130666666Y-77607142D02*
X130714285Y-77654761D01*
X130857142Y-77702380D01*
X130952380Y-77702380D01*
X131095238Y-77654761D01*
X131190476Y-77559523D01*
X131238095Y-77464285D01*
X131285714Y-77273809D01*
X131285714Y-77130952D01*
X131238095Y-76940476D01*
X131190476Y-76845238D01*
X131095238Y-76750000D01*
X130952380Y-76702380D01*
X130857142Y-76702380D01*
X130714285Y-76750000D01*
X130666666Y-76797619D01*
X130285714Y-76797619D02*
X130238095Y-76750000D01*
X130142857Y-76702380D01*
X129904761Y-76702380D01*
X129809523Y-76750000D01*
X129761904Y-76797619D01*
X129714285Y-76892857D01*
X129714285Y-76988095D01*
X129761904Y-77130952D01*
X130333333Y-77702380D01*
X129714285Y-77702380D01*
X141666666Y-86107142D02*
X141714285Y-86154761D01*
X141857142Y-86202380D01*
X141952380Y-86202380D01*
X142095238Y-86154761D01*
X142190476Y-86059523D01*
X142238095Y-85964285D01*
X142285714Y-85773809D01*
X142285714Y-85630952D01*
X142238095Y-85440476D01*
X142190476Y-85345238D01*
X142095238Y-85250000D01*
X141952380Y-85202380D01*
X141857142Y-85202380D01*
X141714285Y-85250000D01*
X141666666Y-85297619D01*
X141333333Y-85202380D02*
X140714285Y-85202380D01*
X141047619Y-85583333D01*
X140904761Y-85583333D01*
X140809523Y-85630952D01*
X140761904Y-85678571D01*
X140714285Y-85773809D01*
X140714285Y-86011904D01*
X140761904Y-86107142D01*
X140809523Y-86154761D01*
X140904761Y-86202380D01*
X141190476Y-86202380D01*
X141285714Y-86154761D01*
X141333333Y-86107142D01*
X163916666Y-110702380D02*
X164250000Y-110226190D01*
X164488095Y-110702380D02*
X164488095Y-109702380D01*
X164107142Y-109702380D01*
X164011904Y-109750000D01*
X163964285Y-109797619D01*
X163916666Y-109892857D01*
X163916666Y-110035714D01*
X163964285Y-110130952D01*
X164011904Y-110178571D01*
X164107142Y-110226190D01*
X164488095Y-110226190D01*
X162964285Y-110702380D02*
X163535714Y-110702380D01*
X163250000Y-110702380D02*
X163250000Y-109702380D01*
X163345238Y-109845238D01*
X163440476Y-109940476D01*
X163535714Y-109988095D01*
X127166666Y-87507142D02*
X127214285Y-87554761D01*
X127357142Y-87602380D01*
X127452380Y-87602380D01*
X127595238Y-87554761D01*
X127690476Y-87459523D01*
X127738095Y-87364285D01*
X127785714Y-87173809D01*
X127785714Y-87030952D01*
X127738095Y-86840476D01*
X127690476Y-86745238D01*
X127595238Y-86650000D01*
X127452380Y-86602380D01*
X127357142Y-86602380D01*
X127214285Y-86650000D01*
X127166666Y-86697619D01*
X126309523Y-86935714D02*
X126309523Y-87602380D01*
X126547619Y-86554761D02*
X126785714Y-87269047D01*
X126166666Y-87269047D01*
X164845238Y-117547619D02*
X164940476Y-117500000D01*
X165035714Y-117404761D01*
X165178571Y-117261904D01*
X165273809Y-117214285D01*
X165369047Y-117214285D01*
X165321428Y-117452380D02*
X165416666Y-117404761D01*
X165511904Y-117309523D01*
X165559523Y-117119047D01*
X165559523Y-116785714D01*
X165511904Y-116595238D01*
X165416666Y-116500000D01*
X165321428Y-116452380D01*
X165130952Y-116452380D01*
X165035714Y-116500000D01*
X164940476Y-116595238D01*
X164892857Y-116785714D01*
X164892857Y-117119047D01*
X164940476Y-117309523D01*
X165035714Y-117404761D01*
X165130952Y-117452380D01*
X165321428Y-117452380D01*
X163940476Y-117452380D02*
X164511904Y-117452380D01*
X164226190Y-117452380D02*
X164226190Y-116452380D01*
X164321428Y-116595238D01*
X164416666Y-116690476D01*
X164511904Y-116738095D01*
X138464285Y-118452380D02*
X138464285Y-117452380D01*
X138226190Y-117452380D01*
X138083333Y-117500000D01*
X137988095Y-117595238D01*
X137940476Y-117690476D01*
X137892857Y-117880952D01*
X137892857Y-118023809D01*
X137940476Y-118214285D01*
X137988095Y-118309523D01*
X138083333Y-118404761D01*
X138226190Y-118452380D01*
X138464285Y-118452380D01*
X137511904Y-118404761D02*
X137369047Y-118452380D01*
X137130952Y-118452380D01*
X137035714Y-118404761D01*
X136988095Y-118357142D01*
X136940476Y-118261904D01*
X136940476Y-118166666D01*
X136988095Y-118071428D01*
X137035714Y-118023809D01*
X137130952Y-117976190D01*
X137321428Y-117928571D01*
X137416666Y-117880952D01*
X137464285Y-117833333D01*
X137511904Y-117738095D01*
X137511904Y-117642857D01*
X137464285Y-117547619D01*
X137416666Y-117500000D01*
X137321428Y-117452380D01*
X137083333Y-117452380D01*
X136940476Y-117500000D01*
X135988095Y-118452380D02*
X136559523Y-118452380D01*
X136273809Y-118452380D02*
X136273809Y-117452380D01*
X136369047Y-117595238D01*
X136464285Y-117690476D01*
X136559523Y-117738095D01*
X129886666Y-57388571D02*
X129553333Y-57388571D01*
X129410476Y-57912380D02*
X129886666Y-57912380D01*
X129886666Y-56912380D01*
X129410476Y-56912380D01*
X129077142Y-56912380D02*
X128410476Y-57912380D01*
X128410476Y-56912380D02*
X129077142Y-57912380D01*
X128029523Y-57912380D02*
X128029523Y-56912380D01*
X127648571Y-56912380D01*
X127553333Y-56960000D01*
X127505714Y-57007619D01*
X127458095Y-57102857D01*
X127458095Y-57245714D01*
X127505714Y-57340952D01*
X127553333Y-57388571D01*
X127648571Y-57436190D01*
X128029523Y-57436190D01*
X127077142Y-57007619D02*
X127029523Y-56960000D01*
X126934285Y-56912380D01*
X126696190Y-56912380D01*
X126600952Y-56960000D01*
X126553333Y-57007619D01*
X126505714Y-57102857D01*
X126505714Y-57198095D01*
X126553333Y-57340952D01*
X127124761Y-57912380D01*
X126505714Y-57912380D01*
X117389268Y-123197940D02*
X117722601Y-122721750D01*
X117960697Y-123197940D02*
X117960697Y-122197940D01*
X117579744Y-122197940D01*
X117484506Y-122245560D01*
X117436887Y-122293179D01*
X117389268Y-122388417D01*
X117389268Y-122531274D01*
X117436887Y-122626512D01*
X117484506Y-122674131D01*
X117579744Y-122721750D01*
X117960697Y-122721750D01*
X116627363Y-122674131D02*
X116484506Y-122721750D01*
X116436887Y-122769369D01*
X116389268Y-122864607D01*
X116389268Y-123007464D01*
X116436887Y-123102702D01*
X116484506Y-123150321D01*
X116579744Y-123197940D01*
X116960697Y-123197940D01*
X116960697Y-122197940D01*
X116627363Y-122197940D01*
X116532125Y-122245560D01*
X116484506Y-122293179D01*
X116436887Y-122388417D01*
X116436887Y-122483655D01*
X116484506Y-122578893D01*
X116532125Y-122626512D01*
X116627363Y-122674131D01*
X116960697Y-122674131D01*
X115484506Y-123197940D02*
X115960697Y-123197940D01*
X115960697Y-122197940D01*
X114627363Y-123197940D02*
X115198792Y-123197940D01*
X114913078Y-123197940D02*
X114913078Y-122197940D01*
X115008316Y-122340798D01*
X115103554Y-122436036D01*
X115198792Y-122483655D01*
X160386666Y-57388571D02*
X160053333Y-57388571D01*
X159910476Y-57912380D02*
X160386666Y-57912380D01*
X160386666Y-56912380D01*
X159910476Y-56912380D01*
X159577142Y-56912380D02*
X158910476Y-57912380D01*
X158910476Y-56912380D02*
X159577142Y-57912380D01*
X158529523Y-57912380D02*
X158529523Y-56912380D01*
X158148571Y-56912380D01*
X158053333Y-56960000D01*
X158005714Y-57007619D01*
X157958095Y-57102857D01*
X157958095Y-57245714D01*
X158005714Y-57340952D01*
X158053333Y-57388571D01*
X158148571Y-57436190D01*
X158529523Y-57436190D01*
X157005714Y-57912380D02*
X157577142Y-57912380D01*
X157291428Y-57912380D02*
X157291428Y-56912380D01*
X157386666Y-57055238D01*
X157481904Y-57150476D01*
X157577142Y-57198095D01*
M02*
