G04 #@! TF.FileFunction,Copper,L1,Top,Signal*
%FSLAX46Y46*%
G04 Gerber Fmt 4.6, Leading zero omitted, Abs format (unit mm)*
G04 Created by KiCad (PCBNEW (2016-09-20 revision a0104d6)-master) date Mon Oct 17 16:35:46 2016*
%MOMM*%
%LPD*%
G01*
G04 APERTURE LIST*
%ADD10C,0.100000*%
%ADD11C,1.250000*%
%ADD12C,3.375000*%
%ADD13O,1.727200X2.032000*%
%ADD14R,1.727200X2.032000*%
%ADD15O,1.727200X1.727200*%
%ADD16R,1.727200X1.727200*%
%ADD17C,4.150000*%
%ADD18C,2.000000*%
%ADD19C,0.600000*%
%ADD20C,0.250000*%
G04 APERTURE END LIST*
D10*
D11*
X172500000Y-129000000D03*
X172500000Y-131500000D03*
X172500000Y-134000000D03*
D12*
X180000000Y-126000000D03*
X180000000Y-137000000D03*
D11*
X187000000Y-134000000D03*
X187000000Y-129000000D03*
D13*
X110990000Y-120500000D03*
X113530000Y-120500000D03*
X116070000Y-120500000D03*
X118610000Y-120500000D03*
X121150000Y-120500000D03*
X123690000Y-120500000D03*
X126230000Y-120500000D03*
X128770000Y-120500000D03*
X131310000Y-120500000D03*
X133850000Y-120500000D03*
X136390000Y-120500000D03*
X138930000Y-120500000D03*
X141470000Y-120500000D03*
X144010000Y-120500000D03*
X146550000Y-120500000D03*
X149090000Y-120500000D03*
X151630000Y-120500000D03*
X154170000Y-120500000D03*
X156710000Y-120500000D03*
D14*
X159250000Y-120500000D03*
D15*
X133300000Y-65000000D03*
X133300000Y-62460000D03*
X130760000Y-65000000D03*
X130760000Y-62460000D03*
X128220000Y-65000000D03*
X128220000Y-62460000D03*
X125680000Y-65000000D03*
X125680000Y-62460000D03*
X123140000Y-65000000D03*
D16*
X123140000Y-62460000D03*
D17*
X99500000Y-55500000D03*
X187500000Y-120500000D03*
X99500000Y-120500000D03*
D18*
X164799840Y-131500000D03*
X157200160Y-131500000D03*
D17*
X187500000Y-55500000D03*
D15*
X163800000Y-65000000D03*
X163800000Y-62460000D03*
X161260000Y-65000000D03*
X161260000Y-62460000D03*
X158720000Y-65000000D03*
X158720000Y-62460000D03*
X156180000Y-65000000D03*
X156180000Y-62460000D03*
X153640000Y-65000000D03*
D16*
X153640000Y-62460000D03*
D19*
X121920000Y-96050100D03*
X135115300Y-100195380D03*
X135115300Y-93845380D03*
X135115300Y-97655380D03*
X132000000Y-67250000D03*
X153800000Y-116050000D03*
X152650000Y-114400000D03*
D20*
X156710000Y-120500000D02*
X156710000Y-131009840D01*
X156710000Y-131009840D02*
X157200160Y-131500000D01*
X145250000Y-121510842D02*
X145250000Y-72014460D01*
X126950000Y-61970870D02*
X126950000Y-63730000D01*
X126950000Y-63730000D02*
X128220000Y-65000000D01*
X145250000Y-72014460D02*
X133985530Y-60749990D01*
X133985530Y-60749990D02*
X128170880Y-60749990D01*
X128170880Y-60749990D02*
X126950000Y-61970870D01*
X168600000Y-132900000D02*
X156639158Y-132900000D01*
X156639158Y-132900000D02*
X145250000Y-121510842D01*
X172500000Y-129000000D02*
X168600000Y-132900000D01*
X142700000Y-121100000D02*
X142700000Y-70100870D01*
X172500000Y-134000000D02*
X155600000Y-134000000D01*
X155600000Y-134000000D02*
X142700000Y-121100000D01*
X130098072Y-61200000D02*
X129500000Y-61798072D01*
X142700000Y-70100870D02*
X133799130Y-61200000D01*
X133799130Y-61200000D02*
X130098072Y-61200000D01*
X129500000Y-61798072D02*
X129500000Y-63740000D01*
X129500000Y-63740000D02*
X130760000Y-65000000D01*
X165050000Y-63710000D02*
X165050000Y-107050000D01*
X165050000Y-107050000D02*
X187000000Y-129000000D01*
X163800000Y-62460000D02*
X165050000Y-63710000D01*
X133300000Y-65000000D02*
X121920000Y-76380000D01*
X121920000Y-76380000D02*
X121920000Y-96050100D01*
X135115300Y-100195380D02*
X136000000Y-99310680D01*
X136000000Y-99310680D02*
X136000000Y-65160000D01*
X134163599Y-63323599D02*
X133300000Y-62460000D01*
X136000000Y-65160000D02*
X134163599Y-63323599D01*
X135115300Y-93421116D02*
X135115300Y-93845380D01*
X135115300Y-65056170D02*
X135115300Y-93421116D01*
X132000000Y-63750000D02*
X133809130Y-63750000D01*
X133809130Y-63750000D02*
X135115300Y-65056170D01*
X130760000Y-62460000D02*
X130760000Y-62510000D01*
X130760000Y-62510000D02*
X132000000Y-63750000D01*
X130760000Y-62460000D02*
X132000000Y-63750000D01*
X135115300Y-97655380D02*
X132000000Y-94540080D01*
X132000000Y-94540080D02*
X132000000Y-67250000D01*
X162500000Y-63700000D02*
X162500000Y-107350000D01*
X162500000Y-107350000D02*
X153800000Y-116050000D01*
X161260000Y-62460000D02*
X162500000Y-63700000D01*
X153800000Y-116050000D02*
X153750000Y-116100000D01*
X151630000Y-118220000D02*
X153750000Y-116100000D01*
X151630000Y-120500000D02*
X151630000Y-118220000D01*
X161260000Y-62460000D02*
X161260000Y-63010000D01*
X161260000Y-62460000D02*
X161260000Y-62960000D01*
X149090000Y-120500000D02*
X149090000Y-119834998D01*
X149090000Y-119834998D02*
X161260000Y-107664998D01*
X161260000Y-107664998D02*
X161260000Y-106500000D01*
X161260000Y-106500000D02*
X161260000Y-65000000D01*
X158720000Y-108330000D02*
X152650000Y-114400000D01*
X152650000Y-114400000D02*
X146550000Y-120500000D01*
X158720000Y-65000000D02*
X158720000Y-108330000D01*
M02*
