M48
;DRILL file {KiCad (2016-09-20 revision a0104d6)-master} date Mon Oct 17 16:35:41 2016
;FORMAT={-:-/ absolute / inch / decimal}
FMAT,2
INCH,TZ
T1C0.016
T2C0.039
T3C0.039
T4C0.040
T5C0.106
T6C0.134
T7C0.043
T8C0.063
%
G90
G05
M72
T1
X4.8Y-3.7815
X5.1969Y-2.6476
X5.3195Y-3.6947
X5.3195Y-3.8447
X5.3195Y-3.9447
X6.0098Y-4.5039
X6.0551Y-4.5689
T2
X6.7913Y-5.0787
X6.7913Y-5.1772
X6.7913Y-5.2756
X7.3622Y-5.0787
X7.3622Y-5.2756
T3
X6.189Y-5.1772
X6.4882Y-5.1772
T4
X4.3697Y-4.7441
X4.4697Y-4.7441
X4.5697Y-4.7441
X4.6697Y-4.7441
X4.7697Y-4.7441
X4.848Y-2.4591
X4.848Y-2.5591
X4.8697Y-4.7441
X4.948Y-2.4591
X4.948Y-2.5591
X4.9697Y-4.7441
X5.048Y-2.4591
X5.048Y-2.5591
X5.0697Y-4.7441
X5.148Y-2.4591
X5.148Y-2.5591
X5.1697Y-4.7441
X5.248Y-2.4591
X5.248Y-2.5591
X5.2697Y-4.7441
X5.3697Y-4.7441
X5.4697Y-4.7441
X5.5697Y-4.7441
X5.6697Y-4.7441
X5.7697Y-4.7441
X5.8697Y-4.7441
X5.9697Y-4.7441
X6.0488Y-2.4591
X6.0488Y-2.5591
X6.0697Y-4.7441
X6.1488Y-2.4591
X6.1488Y-2.5591
X6.1697Y-4.7441
X6.2488Y-2.4591
X6.2488Y-2.5591
X6.2697Y-4.7441
X6.3488Y-2.4591
X6.3488Y-2.5591
X6.4488Y-2.4591
X6.4488Y-2.5591
T5
X7.0866Y-4.9606
X7.0866Y-5.3937
T6
X3.9173Y-2.185
X3.9173Y-4.7441
X7.3819Y-2.185
X7.3819Y-4.7441
T7
X4.7421Y-3.9174
T8
X4.7421Y-3.0906
T0
M30
