G04 #@! TF.FileFunction,Soldermask,Bot*
%FSLAX46Y46*%
G04 Gerber Fmt 4.6, Leading zero omitted, Abs format (unit mm)*
G04 Created by KiCad (PCBNEW (2016-09-20 revision a0104d6)-master) date Mon Oct 17 16:35:46 2016*
%MOMM*%
%LPD*%
G01*
G04 APERTURE LIST*
%ADD10C,0.100000*%
%ADD11C,1.450000*%
%ADD12C,3.575000*%
%ADD13R,0.950000X0.400000*%
%ADD14C,2.000200*%
%ADD15C,1.492200*%
%ADD16R,1.901140X1.101040*%
%ADD17R,1.901140X1.400760*%
%ADD18R,3.199080X1.901140*%
%ADD19R,1.416000X2.432000*%
%ADD20R,4.057600X2.432000*%
%ADD21R,1.543000X0.908000*%
%ADD22R,1.650000X1.900000*%
%ADD23R,1.900000X1.650000*%
%ADD24R,1.700000X1.900000*%
%ADD25R,2.000000X2.400000*%
%ADD26R,1.200100X2.200860*%
%ADD27O,2.127200X2.432000*%
%ADD28R,2.127200X2.432000*%
%ADD29O,2.127200X2.127200*%
%ADD30R,2.127200X2.127200*%
%ADD31C,4.550000*%
%ADD32R,1.900000X1.700000*%
%ADD33C,2.400000*%
G04 APERTURE END LIST*
D10*
D11*
X172500000Y-129000000D03*
X172500000Y-131500000D03*
X172500000Y-134000000D03*
D12*
X180000000Y-126000000D03*
X180000000Y-137000000D03*
D11*
X187000000Y-134000000D03*
X187000000Y-129000000D03*
D13*
X150913000Y-116086000D03*
X150913000Y-116586000D03*
X150913000Y-117086000D03*
X152363000Y-117086000D03*
X152363000Y-116586000D03*
X152363000Y-116086000D03*
D14*
X120449080Y-78500400D03*
D15*
X120449080Y-99501120D03*
D16*
X123250700Y-100250420D03*
X123250700Y-99049000D03*
D17*
X123250700Y-81124220D03*
D18*
X121449840Y-76549680D03*
X121449840Y-101649960D03*
X99948740Y-74350040D03*
X99948740Y-101649960D03*
D17*
X123250700Y-78624860D03*
X123250700Y-97751060D03*
X123250700Y-96049260D03*
X123250700Y-93626100D03*
X123250700Y-91124200D03*
X123250700Y-88624840D03*
X123250700Y-86125480D03*
X123250700Y-83626120D03*
D19*
X139286000Y-83552000D03*
X134714000Y-83552000D03*
X137000000Y-83552000D03*
D20*
X137000000Y-76948000D03*
D21*
X133825000Y-92575000D03*
X140175000Y-91305000D03*
X140175000Y-92575000D03*
X140175000Y-93845000D03*
X140175000Y-95115000D03*
X140175000Y-96385000D03*
X140175000Y-97655000D03*
X140175000Y-98925000D03*
X140175000Y-100195000D03*
X133825000Y-100195000D03*
X133825000Y-98925000D03*
X133825000Y-97655000D03*
X133825000Y-96385000D03*
X133825000Y-95115000D03*
X133825000Y-93845000D03*
X133825000Y-91305000D03*
D22*
X143500000Y-81500000D03*
X143500000Y-79000000D03*
X130500000Y-81500000D03*
X130500000Y-79000000D03*
D23*
X142750000Y-87500000D03*
X140250000Y-87500000D03*
D24*
X163750000Y-114850000D03*
X163750000Y-112150000D03*
D25*
X127000000Y-93150000D03*
X127000000Y-89150000D03*
D26*
X164750000Y-122001140D03*
X165700000Y-118998860D03*
X163800000Y-118998860D03*
D27*
X110990000Y-120500000D03*
X113530000Y-120500000D03*
X116070000Y-120500000D03*
X118610000Y-120500000D03*
X121150000Y-120500000D03*
X123690000Y-120500000D03*
X126230000Y-120500000D03*
X128770000Y-120500000D03*
X131310000Y-120500000D03*
X133850000Y-120500000D03*
X136390000Y-120500000D03*
X138930000Y-120500000D03*
X141470000Y-120500000D03*
X144010000Y-120500000D03*
X146550000Y-120500000D03*
X149090000Y-120500000D03*
X151630000Y-120500000D03*
X154170000Y-120500000D03*
X156710000Y-120500000D03*
D28*
X159250000Y-120500000D03*
D29*
X133300000Y-65000000D03*
X133300000Y-62460000D03*
X130760000Y-65000000D03*
X130760000Y-62460000D03*
X128220000Y-65000000D03*
X128220000Y-62460000D03*
X125680000Y-65000000D03*
X125680000Y-62460000D03*
X123140000Y-65000000D03*
D30*
X123140000Y-62460000D03*
D31*
X99500000Y-55500000D03*
X187500000Y-120500000D03*
X99500000Y-120500000D03*
D32*
X114717840Y-124495560D03*
X117417840Y-124495560D03*
D33*
X164799840Y-131500000D03*
X157200160Y-131500000D03*
D31*
X187500000Y-55500000D03*
D29*
X163800000Y-65000000D03*
X163800000Y-62460000D03*
X161260000Y-65000000D03*
X161260000Y-62460000D03*
X158720000Y-65000000D03*
X158720000Y-62460000D03*
X156180000Y-65000000D03*
X156180000Y-62460000D03*
X153640000Y-65000000D03*
D30*
X153640000Y-62460000D03*
M02*
